<svg xmlns="http://www.w3.org/2000/svg" width="810" viewBox="0 0 810 810" height="810" version="1.0"><defs><clipPath id="a"><path d="M 1.191406 1.628906 L 808.941406 1.628906 L 808.941406 809.378906 L 1.191406 809.378906 Z M 1.191406 1.628906"/></clipPath><clipPath id="b"><path d="M 176.226562 1.628906 L 629.976562 1.628906 L 629.976562 242.378906 L 176.226562 242.378906 Z M 176.226562 1.628906"/></clipPath></defs><g clip-path="url(#a)"><path fill="#B14736" d="M 405.066406 1.628906 C 182.425781 1.628906 1.191406 182.867188 1.191406 405.503906 C 1.191406 628.144531 182.425781 809.378906 405.066406 809.378906 C 627.703125 809.378906 808.941406 628.144531 808.941406 405.503906 C 808.941406 182.867188 627.703125 1.628906 405.066406 1.628906 Z M 405.066406 71.867188 C 589.742188 71.867188 738.699219 220.828125 738.699219 405.503906 C 738.699219 590.183594 589.742188 739.140625 405.066406 739.140625 C 220.386719 739.140625 71.429688 590.183594 71.429688 405.503906 C 71.429688 220.828125 220.386719 71.867188 405.066406 71.867188 Z M 405.066406 71.867188"/></g><g clip-path="url(#b)"><path fill="#EFB6AD" d="M 405.066406 1.628906 C 182.425781 1.628906 1.191406 182.867188 1.191406 405.503906 C 1.191406 628.144531 182.425781 809.378906 405.066406 809.378906 C 627.703125 809.378906 808.941406 628.144531 808.941406 405.503906 C 808.941406 182.867188 627.703125 1.628906 405.066406 1.628906 Z M 405.066406 71.867188 C 589.742188 71.867188 738.699219 220.828125 738.699219 405.503906 C 738.699219 590.183594 589.742188 739.140625 405.066406 739.140625 C 220.386719 739.140625 71.429688 590.183594 71.429688 405.503906 C 71.429688 220.828125 220.386719 71.867188 405.066406 71.867188 Z M 405.066406 71.867188"/></g></svg>